<?xml version="1.0" standalone="no"?>
<!DOCTYPE svg PUBLIC "-//W3C//DTD SVG 20010904//EN"
 "http://www.w3.org/TR/2001/REC-SVG-20010904/DTD/svg10.dtd">
<svg version="1.0" xmlns="http://www.w3.org/2000/svg"
 width="400.000000pt" height="400.000000pt" viewBox="0 0 400.000000 400.000000"
 preserveAspectRatio="xMidYMid meet">
<metadata>
Created by potrace 1.11, written by Peter Selinger 2001-2013
</metadata>
<g transform="translate(0.000000,400.000000) scale(0.100000,-0.100000)"
fill="#000000" stroke="none">
<path d="M2595 3483 c-282 -60 -505 -278 -574 -560 -31 -123 -20 -301 24 -428
68 -193 245 -374 435 -444 142 -52 325 -63 460 -27 248 67 439 249 526 502 24
70 29 115 28 239 -1 124 -13 184 -63 298 -82 190 -281 357 -491 413 -87 23
-256 26 -345 7z"/>
<path d="M1140 1993 c-319 -54 -557 -282 -624 -598 -21 -95 -14 -268 13 -352
107 -332 379 -538 711 -538 122 0 163 6 251 36 259 88 450 311 498 579 10 60
6 242 -8 300 -44 181 -158 346 -313 452 -60 40 -168 90 -229 104 -19 4 -41 9
-49 12 -23 5 -222 10 -250 5z"/>
</g>
</svg>
